<svg xmlns="http://www.w3.org/2000/svg" id="mainsvg" width="1521.73076171875" height="542.76953125" viewBox="-22.7919921875 -10 1383.3916015625 494.3359375"><defs><marker id="arrow" viewBox="0 0 10 10" refX="10" refY="5" markerWidth="5" markerHeight="5" orient="auto-start-reverse" fill="black"><path stroke="black" d="M 0 0 L 10 5 L 0 10 z"/></marker><marker id="Many" viewBox="0 0 16 16" refX="15" refY="8" markerWidth="15" markerHeight="15" orient="auto-start-reverse"><path stroke="black" d="M0 8H15M15 15L2 8L15 1" fill="none"/></marker><marker id="ZeroOrOne" viewBox="0 0 16 10" refX="15" refY="5" markerWidth="21" markerHeight="21" orient="auto-start-reverse"><path d="M9 5H16" stroke="black" fill="none"/><circle cx="5" cy="5" r="4.5" stroke="black" fill="#fff"/><path d="M12 0L12 10" stroke="black" fill="none"/></marker><marker id="OneOnlyOne" viewBox="0 0 10 14" refX="10" refY="7" markerWidth="13" markerHeight="13" orient="auto-start-reverse"><path d="M0 7H4M4 7H7M4 7V0M4 7V14M7 7H10M7 7V0M7 7V14" stroke="black" fill="none"/></marker><marker id="OneOrMany" viewBox="0 0 16 16" refX="15" refY="8" markerWidth="15" markerHeight="15" orient="auto-start-reverse"><path stroke="black" d="M2 1V15M2 8L15 15M2 8L15 1M2 8H0M2 8H15" fill="none"/></marker><marker id="ZeroOrMany" viewBox="0 0 25 16" refX="23" refY="8" markerWidth="25" markerHeight="25" orient="auto-start-reverse"><path d="M13 8H27M27 15L14 8L27 1" stroke="black" fill="none"/><path d="M13.5 7.5C13.5 10.7795 10.6254 13.5 7 13.5C3.37461 13.5 0.5 10.7795 0.5 7.5C0.5 4.22054 3.37461 1.5 7 1.5C10.6254 1.5 13.5 4.22054 13.5 7.5Z" stroke="black" fill="#fff"/></marker><marker id="aggregation" viewBox="0 0 10 6" refX="9.3" refY="2.8" markerWidth="23" markerHeight="15" orient="auto-start-reverse"><path stroke="black" fill="#fff" stroke-width="0.7" d="M1.01614 2.82609L5 0.574341L8.98386 2.82609L5 5.07783L1.01614 2.82609Z"/></marker><marker id="composition" viewBox="0 0 10 6" refX="9.7" refY="2.8" markerWidth="18" markerHeight="15" orient="auto-start-reverse"><path stroke="black" fill="black" d="M1.01614 2.82609L5 0.574341L8.98386 2.82609L5 5.07783L1.01614 2.82609Z"/></marker><marker id="implementation" viewBox="0 0 8 10" refX="8" refY="5" markerWidth="20" markerHeight="20" orient="auto-start-reverse"><path stroke="black" fill="#fff" stroke-width="0.7" d="M0.750001 1.10289L7.5 5L0.750001 8.89712L0.750001 1.10289Z"/></marker><marker id="dependency" viewBox="0 0 12 12" refX="11" refY="6" markerWidth="12" markerHeight="11" orient="auto-start-reverse"><path stroke="black" fill="#fff" d="M1 5.93162H10.886M10.886 5.93162L1 0.5M10.886 5.93162L1 11"/></marker><marker id="inheritance" viewBox="0 0 8 10" refX="8" refY="5" markerWidth="20" markerHeight="20" orient="auto-start-reverse"><path stroke="black" fill="#fff" stroke-width="0.7" d="M0.750001 1.10289L7.5 5L0.750001 8.89712L0.750001 1.10289Z"/></marker><marker id="association" viewBox="0 0 12 12" refX="11" refY="6" markerWidth="12" markerHeight="11" orient="auto-start-reverse"><path stroke="black" d="M1 5.93162H10.886M10.886 5.93162L1 0.5M10.886 5.93162L1 11"/></marker><filter id="shadowOLD" x="-50%" y="-50%" width="250%" height="250%"><feDropShadow flood-color="black" flood-opacity="0.3" dx="1" dy="1" stdDeviation="2"> </feDropShadow></filter><filter id="shadow-path" filterUnits="userSpaceOnUse" x="-22.7919921875" y="-10" width="1383.3916015625px" height="484.3359375px"><feDropShadow flood-color="black" flood-opacity="0.1" dx="1" dy="1" stdDeviation="1"> </feDropShadow></filter><filter id="shadow" filterUnits="userSpaceOnUse" x="-22.7919921875" y="-10" width="1483.3916015625px" height="584.3359375px"><feDropShadow flood-color="black" flood-opacity="0.1" dx="1" dy="1" stdDeviation="1"> </feDropShadow></filter></defs><rect x="-22.7919921875" y="-10" width="1383.3916015625" height="484.3359375" fill="#fff"/><path transform="rotate(0,0, 0) scale(1)" d="M1093.03213235183,243.42578125L1080.3501005275666,274.2649739583333C1067.6680687033033,305.1041666666667,1042.3040050547768,366.7825520833333,1015.4029790898884,397.6217447916667C988.501953125,428.4609375,960.06396484375,428.4609375,923.4564615885416,428.4609375C886.8489583333334,428.4609375,842.0719401041666,428.4609375,795.2200520833334,428.4609375C748.3681640625,428.4609375,699.44140625,428.4609375,651.1065266927084,428.4609375C602.7716471354166,428.4609375,555.0286458333334,428.4609375,503.3290201822917,428.4609375C451.62939453125,428.4609375,395.97314453125,428.4609375,340.373291015625,428.4609375C284.7734375,428.4609375,229.22998046875,428.4609375,179.9942613098403,368.0924479166667C130.7585421509306,307.7239583333333,87.8305608643612,186.98697916666666,66.36657022107651,126.61848958333333L44.902579577791826,66.25" stroke="black" stroke-dasharray="none" stroke-width="2" fill="none" marker-end="url(#arrow)"/><g transform="translate(604.59765625, 420.5234375)"><rect width="91.833984375" height="15.875" stroke="none" fill="none" stroke-width="0" transform="translate(0, 0)" rx="0"/><g transform="translate(0, 0)"><g transform="translate(0, 8)"><rect width="91.833984375" height="15.875" stroke="none" fill="none" stroke-width="0" transform="translate(0, 0)" rx="2"/><text fill="black" font-size="14" font-weight="normal" transform="translate(0, 0)" alignment-baseline="middle" font-family="Arial"><tspan x="0" dy="14" font-family="Arial" font-size="14" font-weight="normal">create account</tspan></text></g></g></g><path transform="rotate(0,0, 0) scale(1)" d="M1156.73046875,198.2890625L1166.7897135416667,198.2890625C1176.8489583333333,198.2890625,1196.9674479166667,198.2890625,1218.8458658854167,198.2890625C1240.7242838541667,198.2890625,1264.3626302083333,198.2890625,1276.1818033854167,198.2890625L1288.0009765625,198.2890625" stroke="black" stroke-dasharray="none" stroke-width="2" fill="none" marker-end="url(#arrow)"/><g transform="translate(1181.73046875, 190.3515625)"><rect width="70.7109375" height="15.875" stroke="none" fill="none" stroke-width="0" transform="translate(0, 0)" rx="0"/><g transform="translate(0, 0)"><g transform="translate(0, 8)"><rect width="70.7109375" height="15.875" stroke="none" fill="none" stroke-width="0" transform="translate(0, 0)" rx="2"/><text fill="black" font-size="14" font-weight="normal" transform="translate(0, 0)" alignment-baseline="middle" font-family="Arial"><tspan x="0" dy="14" font-family="Arial" font-size="14" font-weight="normal">click 'Login'</tspan></text></g></g></g><path transform="rotate(0,0, 0) scale(1)" d="M1304.2487121098006,224.30859375L1289.721583008167,262.990234375C1275.1944539065337,301.671875,1246.140195703267,379.03515625,1214.0310353516334,417.716796875C1181.921875,456.3984375,1146.7578125,456.3984375,1113.400146484375,456.3984375C1080.04248046875,456.3984375,1048.4912109375,456.3984375,1018.49658203125,456.3984375C988.501953125,456.3984375,960.06396484375,456.3984375,923.4564615885416,456.3984375C886.8489583333334,456.3984375,842.0719401041666,456.3984375,795.2200520833334,456.3984375C748.3681640625,456.3984375,699.44140625,456.3984375,651.1065266927084,456.3984375C602.7716471354166,456.3984375,555.0286458333334,456.3984375,503.3290201822917,456.3984375C451.62939453125,456.3984375,395.97314453125,456.3984375,340.373291015625,456.3984375C284.7734375,456.3984375,229.22998046875,456.3984375,179.86470119561957,391.3736979166667C130.49942192248918,326.3489583333333,87.31232040747837,196.29947916666666,65.71876964997297,131.27473958333334L44.12521889246756,66.25" stroke="black" stroke-dasharray="none" stroke-width="2" fill="none" marker-end="url(#arrow)"/><g transform="translate(747.88134765625, 448.4609375)"><rect width="98.8271484375" height="15.875" stroke="none" fill="none" stroke-width="0" transform="translate(0, 0)" rx="0"/><g transform="translate(0, 0)"><g transform="translate(0, 8)"><rect width="98.8271484375" height="15.875" stroke="none" fill="none" stroke-width="0" transform="translate(0, 0)" rx="2"/><text fill="black" font-size="14" font-weight="normal" transform="translate(0, 0)" alignment-baseline="middle" font-family="Arial"><tspan x="0" dy="14" font-family="Arial" font-size="14" font-weight="normal">login successful</tspan></text></g></g></g><path transform="rotate(0,0, 0) scale(1)" d="M1301.6310519788985,224.30859375L1299.3593727428322,229.07942708333334C1297.0876935067656,233.85026041666666,1292.544335034633,243.39192708333334,1290.2726557985663,249.35546875C1288.0009765625,255.31901041666666,1288.0009765625,257.7044270833333,1292.3375651041667,260.08984375C1296.6741536458333,262.4752604166667,1305.3473307291667,264.8606770833333,1314.0205078125,264.8606770833333C1322.6936848958333,264.8606770833333,1331.3668619791667,262.4752604166667,1335.7034505208333,260.08984375C1340.0400390625,257.7044270833333,1340.0400390625,255.31901041666666,1337.7683598264337,249.35546875C1335.496680590367,243.39192708333334,1330.9533221182344,233.85026041666666,1328.6816428821678,229.07942708333334L1326.4099636461015,224.30859375" stroke="black" stroke-dasharray="none" stroke-width="2" fill="none" marker-end="url(#arrow)"/><g transform="translate(1277.44140625, 259.30859375)"><rect width="73.158203125" height="15.875" stroke="none" fill="none" stroke-width="0" transform="translate(0, 0)" rx="0"/><g transform="translate(0, 0)"><g transform="translate(0, 8)"><rect width="73.158203125" height="15.875" stroke="none" fill="none" stroke-width="0" transform="translate(0, 0)" rx="2"/><text fill="black" font-size="14" font-weight="normal" transform="translate(0, 0)" alignment-baseline="middle" font-family="Arial"><tspan x="0" dy="14" font-family="Arial" font-size="14" font-weight="normal">invalid login</tspan></text></g></g></g><path transform="rotate(0,0, 0) scale(1)" d="M47.87590610536346,66.25L68.84434232738623,113.33723958333333C89.81277854940897,160.42447916666666,131.74965099345448,254.59895833333334,173.04189906443557,301.6861979166667C214.33414713541666,348.7734375,254.98177083333334,348.7734375,275.3055826822917,348.7734375L295.62939453125,348.7734375" stroke="black" stroke-dasharray="none" stroke-width="2" fill="none" marker-end="url(#arrow)"/><g transform="translate(116.9345703125, 340.8359375)"><rect width="113.50390625" height="15.875" stroke="none" fill="none" stroke-width="0" transform="translate(0, 0)" rx="0"/><g transform="translate(0, 0)"><g transform="translate(0, 8)"><rect width="113.50390625" height="15.875" stroke="none" fill="none" stroke-width="0" transform="translate(0, 0)" rx="2"/><text fill="black" font-size="14" font-weight="normal" transform="translate(0, 0)" alignment-baseline="middle" font-family="Arial"><tspan x="0" dy="14" font-family="Arial" font-size="14" font-weight="normal">click 'List a Space'</tspan></text></g></g></g><path transform="rotate(0,0, 0) scale(1)" d="M15.355516194331983,66.25L12.796263495276653,71.02083333333333C10.237010796221321,75.79166666666667,5.118505398110661,85.33333333333333,2.5592526990553304,91.296875C0,97.26041666666667,0,99.64583333333333,5.520833333333333,102.03125C11.041666666666666,104.41666666666667,22.083333333333332,106.80208333333333,33.125,106.80208333333333C44.166666666666664,106.80208333333333,55.208333333333336,104.41666666666667,60.729166666666664,102.03125C66.25,99.64583333333333,66.25,97.26041666666667,63.69074730094467,91.296875C61.13149460188934,85.33333333333333,56.01298920377868,75.79166666666667,53.453736504723345,71.02083333333333L50.89448380566802,66.25" stroke="black" stroke-dasharray="none" stroke-width="2" fill="none" marker-end="url(#arrow)"/><g transform="translate(-12.7919921875, 101.25)"><rect width="91.833984375" height="15.875" stroke="none" fill="none" stroke-width="0" transform="translate(0, 0)" rx="0"/><g transform="translate(0, 0)"><g transform="translate(0, 8)"><rect width="91.833984375" height="15.875" stroke="none" fill="none" stroke-width="0" transform="translate(0, 0)" rx="2"/><text fill="black" font-size="14" font-weight="normal" transform="translate(0, 0)" alignment-baseline="middle" font-family="Arial"><tspan x="0" dy="14" font-family="Arial" font-size="14" font-weight="normal">search by date</tspan></text></g></g></g><path transform="rotate(0,0, 0) scale(1)" d="M66.25,52.42994667731962L84.15608723958333,62.86545035609968C102.06217447916667,73.30095403487975,137.87434895833334,94.17196139243987,175.73250325520834,104.60746507121995C213.59065755208334,115.04296875,253.49479166666666,115.04296875,273.4468587239583,115.04296875L293.39892578125,115.04296875" stroke="black" stroke-dasharray="none" stroke-width="2" fill="none" marker-end="url(#arrow)"/><g transform="translate(104.0419921875, 107.10546875)"><rect width="139.2890625" height="15.875" stroke="none" fill="none" stroke-width="0" transform="translate(0, 0)" rx="0"/><g transform="translate(0, 0)"><g transform="translate(0, 8)"><rect width="139.2890625" height="15.875" stroke="none" fill="none" stroke-width="0" transform="translate(0, 0)" rx="2"/><text fill="black" font-size="14" font-weight="normal" transform="translate(0, 0)" alignment-baseline="middle" font-family="Arial"><tspan x="0" dy="14" font-family="Arial" font-size="14" font-weight="normal">click on a space listing</tspan></text></g></g></g><path transform="rotate(0,0, 0) scale(1)" d="M66.25,33.125L84.15608723958333,33.125C102.06217447916667,33.125,137.87434895833334,33.125,183.55216471354166,33.125C229.22998046875,33.125,284.7734375,33.125,340.373291015625,33.125C395.97314453125,33.125,451.62939453125,33.125,503.3290201822917,33.125C555.0286458333334,33.125,602.7716471354166,33.125,651.1065266927084,33.125C699.44140625,33.125,748.3681640625,33.125,795.2200520833334,33.125C842.0719401041666,33.125,886.8489583333334,33.125,923.4564615885416,33.125C960.06396484375,33.125,988.501953125,33.125,1014.1853512541629,53.129557291666664C1039.8687493833258,73.13411458333333,1062.7975573604015,113.14322916666667,1074.2619613489394,133.14778645833334L1085.7263653374773,153.15234375" stroke="black" stroke-dasharray="none" stroke-width="2" fill="none" marker-end="url(#arrow)"/><g transform="translate(625.99755859375, 25.1875)"><rect width="49.0341796875" height="15.875" stroke="none" fill="none" stroke-width="0" transform="translate(0, 0)" rx="0"/><g transform="translate(0, 0)"><g transform="translate(0, 8)"><rect width="49.0341796875" height="15.875" stroke="none" fill="none" stroke-width="0" transform="translate(0, 0)" rx="2"/><text fill="black" font-size="14" font-weight="normal" transform="translate(0, 0)" alignment-baseline="middle" font-family="Arial"><tspan x="0" dy="14" font-family="Arial" font-size="14" font-weight="normal">sign out</tspan></text></g></g></g><path transform="rotate(0,0, 0) scale(1)" d="M387.23486328125,138.4349964505252L407.2433268229167,148.41067412543768C427.2517903645833,158.38635180035013,467.2687174479167,178.33770715017508,503.107666015625,188.31338482508752C538.9466145833334,198.2890625,570.6075846354166,198.2890625,586.4380696614584,198.2890625L602.2685546875,198.2890625" stroke="black" stroke-dasharray="none" stroke-width="2" fill="none" marker-end="url(#arrow)"/><g transform="translate(437.302734375, 190.3515625)"><rect width="139.9658203125" height="15.875" stroke="none" fill="none" stroke-width="0" transform="translate(0, 0)" rx="0"/><g transform="translate(0, 0)"><g transform="translate(0, 8)"><rect width="139.9658203125" height="15.875" stroke="none" fill="none" stroke-width="0" transform="translate(0, 0)" rx="2"/><text fill="black" font-size="14" font-weight="normal" transform="translate(0, 0)" alignment-baseline="middle" font-family="Arial"><tspan x="0" dy="14" font-family="Arial" font-size="14" font-weight="normal">click 'Request to Book'</tspan></text></g></g></g><path transform="rotate(0,0, 0) scale(1)" d="M387.23486328125,115.04296875L407.2433268229167,115.04296875C427.2517903645833,115.04296875,467.2687174479167,115.04296875,511.148681640625,115.04296875C555.0286458333334,115.04296875,602.7716471354166,115.04296875,651.1065266927084,115.04296875C699.44140625,115.04296875,748.3681640625,115.04296875,795.2200520833334,115.04296875C842.0719401041666,115.04296875,886.8489583333334,115.04296875,923.4564615885416,115.04296875C960.06396484375,115.04296875,988.501953125,115.04296875,1010.9737955729166,122.30118048072897C1033.4456380208333,129.55939221145795,1049.9513346354167,144.07581567291587,1058.2041829427083,151.33402740364485L1066.45703125,158.5922391343738" stroke="black" stroke-dasharray="none" stroke-width="2" fill="none" marker-end="url(#arrow)"/><g transform="translate(772.77783203125, 107.10546875)"><rect width="49.0341796875" height="15.875" stroke="none" fill="none" stroke-width="0" transform="translate(0, 0)" rx="0"/><g transform="translate(0, 0)"><g transform="translate(0, 8)"><rect width="49.0341796875" height="15.875" stroke="none" fill="none" stroke-width="0" transform="translate(0, 0)" rx="2"/><text fill="black" font-size="14" font-weight="normal" transform="translate(0, 0)" alignment-baseline="middle" font-family="Arial"><tspan x="0" dy="14" font-family="Arial" font-size="14" font-weight="normal">sign out</tspan></text></g></g></g><path transform="rotate(0,0, 0) scale(1)" d="M320.84380552830413,161.9609375L316.2696589037951,172.98177083333334C311.6955122792861,184.00260416666666,302.547219030268,206.04427083333334,297.973072405759,219.8203125C293.39892578125,233.59635416666666,293.39892578125,239.10677083333334,301.2185872395833,244.6171875C309.0382486979167,250.12760416666666,324.6775716145833,255.63802083333334,340.31689453125,255.63802083333334C355.9562174479167,255.63802083333334,371.5955403645833,250.12760416666666,379.4152018229167,244.6171875C387.23486328125,239.10677083333334,387.23486328125,233.59635416666666,382.660716656741,219.8203125C378.086570032232,206.04427083333334,368.93827678321395,184.00260416666666,364.3641301587049,172.98177083333334L359.78998353419587,161.9609375" stroke="black" stroke-dasharray="none" stroke-width="2" fill="none" marker-end="url(#arrow)"/><g transform="translate(268.3310546875, 253.2109375)"><rect width="143.9716796875" height="15.875" stroke="none" fill="none" stroke-width="0" transform="translate(0, 0)" rx="0"/><g transform="translate(0, 0)"><g transform="translate(0, 8)"><rect width="143.9716796875" height="15.875" stroke="none" fill="none" stroke-width="0" transform="translate(0, 0)" rx="2"/><text fill="black" font-size="14" font-weight="normal" transform="translate(0, 0)" alignment-baseline="middle" font-family="Arial"><tspan x="0" dy="14" font-family="Arial" font-size="14" font-weight="normal">click on available dates</tspan></text></g></g></g><path transform="rotate(0,0, 0) scale(1)" d="M698.7607421875,224.16873930285823L715.18310546875,232.97785566904852C731.60546875,241.78697203523882,764.4501953125,259.4052047676194,797.294921875,268.21432113380973C830.1396484375,277.0234375,862.984375,277.0234375,879.40673828125,277.0234375L895.8291015625,277.0234375" stroke="black" stroke-dasharray="none" stroke-width="2" fill="none" marker-end="url(#arrow)"/><g transform="translate(742.82275390625, 269.0859375)"><rect width="108.9443359375" height="15.875" stroke="none" fill="none" stroke-width="0" transform="translate(0, 0)" rx="0"/><g transform="translate(0, 0)"><g transform="translate(0, 8)"><rect width="108.9443359375" height="15.875" stroke="none" fill="none" stroke-width="0" transform="translate(0, 0)" rx="2"/><text fill="black" font-size="14" font-weight="normal" transform="translate(0, 0)" alignment-baseline="middle" font-family="Arial"><tspan x="0" dy="14" font-family="Arial" font-size="14" font-weight="normal">click on a request</tspan></text></g></g></g><path transform="rotate(0,0, 0) scale(1)" d="M698.7607421875,198.2890625L715.18310546875,198.2890625C731.60546875,198.2890625,764.4501953125,198.2890625,803.2610677083334,198.2890625C842.0719401041666,198.2890625,886.8489583333334,198.2890625,923.4564615885416,198.2890625C960.06396484375,198.2890625,988.501953125,198.2890625,1010.9737955729166,198.2890625C1033.4456380208333,198.2890625,1049.9513346354167,198.2890625,1058.2041829427083,198.2890625L1066.45703125,198.2890625" stroke="black" stroke-dasharray="none" stroke-width="2" fill="none" marker-end="url(#arrow)"/><g transform="translate(907.10888671875, 190.3515625)"><rect width="49.0341796875" height="15.875" stroke="none" fill="none" stroke-width="0" transform="translate(0, 0)" rx="0"/><g transform="translate(0, 0)"><g transform="translate(0, 8)"><rect width="49.0341796875" height="15.875" stroke="none" fill="none" stroke-width="0" transform="translate(0, 0)" rx="2"/><text fill="black" font-size="14" font-weight="normal" transform="translate(0, 0)" alignment-baseline="middle" font-family="Arial"><tspan x="0" dy="14" font-family="Arial" font-size="14" font-weight="normal">sign out</tspan></text></g></g></g><path transform="rotate(0,0, 0) scale(1)" d="M895.8291015625,286.5834971125186L879.40673828125,290.96932051043217C862.984375,295.3551439083457,830.1396484375,304.1267907041729,797.294921875,295.68965943925537C764.4501953125,287.25252817433784,731.60546875,261.6066188486757,715.18310546875,248.7836641858446L698.7607421875,235.96070952301352" stroke="black" stroke-dasharray="none" stroke-width="2" fill="none" marker-end="url(#arrow)"/><g transform="translate(723.7607421875, 304.9609375)"><rect width="147.068359375" height="15.875" stroke="none" fill="none" stroke-width="0" transform="translate(0, 0)" rx="0"/><g transform="translate(0, 0)"><g transform="translate(0, 8)"><rect width="147.068359375" height="15.875" stroke="none" fill="none" stroke-width="0" transform="translate(0, 0)" rx="2"/><text fill="black" font-size="14" font-weight="normal" transform="translate(0, 0)" alignment-baseline="middle" font-family="Arial"><tspan x="0" dy="14" font-family="Arial" font-size="14" font-weight="normal">confirm or deny request</tspan></text></g></g></g><path transform="rotate(0,0, 0) scale(1)" d="M967.4228515625,277.0234375L975.6756998697916,277.0234375C983.9285481770834,277.0234375,1000.4342447916666,277.0234375,1016.93994140625,270.1586017041869C1033.4456380208333,263.2937659083738,1049.9513346354167,249.5640943167476,1058.2041829427083,242.69925852093448L1066.45703125,235.83442272512136" stroke="black" stroke-dasharray="none" stroke-width="2" fill="none" marker-end="url(#arrow)"/><g transform="translate(992.4228515625, 269.0859375)"><rect width="49.0341796875" height="15.875" stroke="none" fill="none" stroke-width="0" transform="translate(0, 0)" rx="0"/><g transform="translate(0, 0)"><g transform="translate(0, 8)"><rect width="49.0341796875" height="15.875" stroke="none" fill="none" stroke-width="0" transform="translate(0, 0)" rx="2"/><text fill="black" font-size="14" font-weight="normal" transform="translate(0, 0)" alignment-baseline="middle" font-family="Arial"><tspan x="0" dy="14" font-family="Arial" font-size="14" font-weight="normal">sign out</tspan></text></g></g></g><path transform="rotate(0,0, 0) scale(1)" d="M385.00439453125,348.7734375L405.3846028645833,348.7734375C425.7648111979167,348.7734375,466.5252278645833,348.7734375,510.7769368489583,348.7734375C555.0286458333334,348.7734375,602.7716471354166,348.7734375,651.1065266927084,348.7734375C699.44140625,348.7734375,748.3681640625,348.7734375,795.2200520833334,348.7734375C842.0719401041666,348.7734375,886.8489583333334,348.7734375,923.4564615885416,348.7734375C960.06396484375,348.7734375,988.501953125,348.7734375,1013.7647925048042,331.2154947916667C1039.0276318846084,313.6575520833333,1061.115322362967,278.5416666666667,1072.159167602146,260.9837239583333L1083.2030128413253,243.42578125" stroke="black" stroke-dasharray="none" stroke-width="2" fill="none" marker-end="url(#arrow)"/><g transform="translate(772.77783203125, 340.8359375)"><rect width="49.0341796875" height="15.875" stroke="none" fill="none" stroke-width="0" transform="translate(0, 0)" rx="0"/><g transform="translate(0, 0)"><g transform="translate(0, 8)"><rect width="49.0341796875" height="15.875" stroke="none" fill="none" stroke-width="0" transform="translate(0, 0)" rx="2"/><text fill="black" font-size="14" font-weight="normal" transform="translate(0, 0)" alignment-baseline="middle" font-family="Arial"><tspan x="0" dy="14" font-family="Arial" font-size="14" font-weight="normal">sign out</tspan></text></g></g></g><path transform="rotate(0,0, 0) scale(1)" d="M295.62939453125,362.6519286167178L275.3055826822917,368.9638467639315C254.98177083333334,375.2757649111452,214.33414713541666,387.89960120557254,172.69560862829633,338.4992797694529C131.05707012117594,289.0989583333333,88.42761680485192,177.67447916666666,67.11289014668989,121.96223958333333L45.79816348852787,66.25" stroke="black" stroke-dasharray="none" stroke-width="2" fill="none" marker-end="url(#arrow)"/><g transform="translate(111.49658203125, 392.5859375)"><rect width="124.3798828125" height="15.875" stroke="none" fill="none" stroke-width="0" transform="translate(0, 0)" rx="0"/><g transform="translate(0, 0)"><g transform="translate(0, 8)"><rect width="124.3798828125" height="15.875" stroke="none" fill="none" stroke-width="0" transform="translate(0, 0)" rx="2"/><text fill="black" font-size="14" font-weight="normal" transform="translate(0, 0)" alignment-baseline="middle" font-family="Arial"><tspan x="0" dy="14" font-family="Arial" font-size="14" font-weight="normal">click 'List My Space'</tspan></text></g></g></g><g transform="translate(0, 0)"><circle cx="33.125" cy="33.125" r="33.125" stroke="black" stroke-width="1.3" fill="white"/><g transform="translate(6, 24.1875)"><rect width="54.25" height="17.875" stroke="black" fill="none" stroke-width="0" transform="translate(0, 0)" rx="2"/><text fill="black" font-size="16" font-weight="normal" transform="translate(0, 0)" alignment-baseline="middle" font-family="Arial"><tspan x="0" dy="16" font-family="Arial" font-size="16" font-weight="normal">Listings</tspan></text></g></g><g transform="translate(1066.45703125, 153.15234375)"><circle cx="45.13671875" cy="45.13671875" r="45.13671875" stroke="black" stroke-width="1.3" fill="white"/><g transform="translate(6, 36.19921875)"><rect width="78.2734375" height="17.875" stroke="black" fill="none" stroke-width="0" transform="translate(0, 0)" rx="2"/><text fill="black" font-size="16" font-weight="normal" transform="translate(0, 0)" alignment-baseline="middle" font-family="Arial"><tspan x="0" dy="16" font-family="Arial" font-size="16" font-weight="normal">Homepage</tspan></text></g></g><g transform="translate(1288.0009765625, 172.26953125)"><circle cx="26.01953125" cy="26.01953125" r="26.01953125" stroke="black" stroke-width="1.3" fill="white"/><g transform="translate(6, 17.08203125)"><rect width="40.0390625" height="17.875" stroke="black" fill="none" stroke-width="0" transform="translate(0, 0)" rx="2"/><text fill="black" font-size="16" font-weight="normal" transform="translate(0, 0)" alignment-baseline="middle" font-family="Arial"><tspan x="0" dy="16" font-family="Arial" font-size="16" font-weight="normal">LogIn</tspan></text></g></g><g transform="translate(295.62939453125, 304.0859375)"><circle cx="44.6875" cy="44.6875" r="44.6875" stroke="black" stroke-width="1.3" fill="white"/><g transform="translate(6, 35.75)"><rect width="77.375" height="17.875" stroke="black" fill="none" stroke-width="0" transform="translate(0, 0)" rx="2"/><text fill="black" font-size="16" font-weight="normal" transform="translate(0, 0)" alignment-baseline="middle" font-family="Arial"><tspan x="0" dy="16" font-family="Arial" font-size="16" font-weight="normal">NewSpace</tspan></text></g></g><g transform="translate(293.39892578125, 68.125)"><circle cx="46.91796875" cy="46.91796875" r="46.91796875" stroke="black" stroke-width="1.3" fill="white"/><g transform="translate(6, 37.98046875)"><rect width="81.8359375" height="17.875" stroke="black" fill="none" stroke-width="0" transform="translate(0, 0)" rx="2"/><text fill="black" font-size="16" font-weight="normal" transform="translate(0, 0)" alignment-baseline="middle" font-family="Arial"><tspan x="0" dy="16" font-family="Arial" font-size="16" font-weight="normal">BookSpace</tspan></text></g></g><g transform="translate(602.2685546875, 150.04296875)"><circle cx="48.24609375" cy="48.24609375" r="48.24609375" stroke="black" stroke-width="1.3" fill="white"/><g transform="translate(6, 39.30859375)"><rect width="84.4921875" height="17.875" stroke="black" fill="none" stroke-width="0" transform="translate(0, 0)" rx="2"/><text fill="black" font-size="16" font-weight="normal" transform="translate(0, 0)" alignment-baseline="middle" font-family="Arial"><tspan x="0" dy="16" font-family="Arial" font-size="16" font-weight="normal">RequestList</tspan></text></g></g><g transform="translate(895.8291015625, 241.2265625)"><circle cx="35.796875" cy="35.796875" r="35.796875" stroke="black" stroke-width="1.3" fill="white"/><g transform="translate(6, 26.859375)"><rect width="59.59375" height="17.875" stroke="black" fill="none" stroke-width="0" transform="translate(0, 0)" rx="2"/><text fill="black" font-size="16" font-weight="normal" transform="translate(0, 0)" alignment-baseline="middle" font-family="Arial"><tspan x="0" dy="16" font-family="Arial" font-size="16" font-weight="normal">Request</tspan></text></g></g></svg>